PathFileType	4	(X/Y/Z)	Patient4_TMGait_0pt6_01_right_19.trc.trc
DataRate	CameraRate	NumFrames	NumMarkers	Units	OrigDataRate	OrigDataStartFrame	OrigNumFrames
82.352941176471	82.352941176471	6	33	mm	82.352941176471	71	       141
Frame#	Time	Sacral			L.Shoulder			Chest			R.Shoulder			Neck			R.ASIS			L.ASIS			R.Thigh.Superior			R.Thigh.Lateral			R.Thigh.Inferior			R.Patella			L.Thigh.Superior			L.Thigh.Lateral			L.Thigh.Inferior			L.Patella			L.Shank.Superior			L.Shank.Lateral			L.Shank.Inferior			R.Shank.Superior			R.Shank.Lateral			R.Shank.Inferior			R.Heel			R.Midfoot.Superior			R.Midfoot.Lateral			R.Toe			L.Heel			L.Midfoot.Lateral			L.Midfoot.Superior			L.Toe			L.Elbow			L.Wrist			R.Elbow			R.Wrist			
		X1	Y1	Z1	X2	Y2	Z2	X3	Y3	Z3	X4	Y4	Z4	X5	Y5	Z5	X6	Y6	Z6	X7	Y7	Z7	X8	Y8	Z8	X9	Y9	Z9	X10	Y10	Z10	X11	Y11	Z11	X12	Y12	Z12	X13	Y13	Z13	X14	Y14	Z14	X15	Y15	Z15	X16	Y16	Z16	X17	Y17	Z17	X18	Y18	Z18	X19	Y19	Z19	X20	Y20	Z20	X21	Y21	Z21	X22	Y22	Z22	X23	Y23	Z23	X24	Y24	Z24	X25	Y25	Z25	X26	Y26	Z26	X27	Y27	Z27	X28	Y28	Z28	X29	Y29	Z29	X30	Y30	Z30	X31	Y31	Z31	X32	Y32	Z32	X33	Y33	Z33	

71	23.350000000000	713.362134648145	1001.445536099900	505.803423769966	863.888366802869	1432.428773262394	323.243607502335	985.618666171365	1357.827480582287	467.598265203168	923.466560079689	1426.094238643622	651.346496773867	871.207127786875	1487.683923712101	477.596416396914	942.770763571832	932.712721244662	608.810162303368	914.678903797736	952.668753024240	334.315145151049	934.491980270835	719.187947843291	582.822167199220	827.223825661424	628.976578739198	644.951509321522	884.610020405515	561.593103271692	564.670355288639	863.128393677311	477.214044014785	568.412207009581	988.250124835216	768.701495865224	366.639092210549	939.189026223583	637.487947989754	291.828209337882	1042.309733027079	580.700162361336	353.918517099183	1068.412730021699	516.059363088091	353.142753270522	1054.773937031724	443.331032530812	344.399029243860	992.210923011250	310.404687980612	297.764214470628	1082.341071623096	215.745361159974	355.185990483656	823.630886408342	393.745003567327	575.409042954885	738.423939536443	300.979051725522	637.048981081819	765.798088959271	201.652504164101	573.026203549337	612.724111328181	44.674291325992	541.940127755712	785.761276836599	96.492519359440	578.462203620198	695.477799785762	37.147550183970	615.978655882949	903.881656084537	40.222412205875	607.447160740600	1002.616240398021	38.877772309097	399.473487447363	1075.844800898410	41.264275816891	318.546695226992	1147.590405686693	117.084415043296	337.270406745761	1280.577166013752	85.122426463686	311.308674574608	725.349031230224	1105.861341590086	226.537412023794	685.481471263689	848.959221285862	234.910238128027	1057.436244666221	1111.239769888180	761.150212892896	1303.475001331873	1155.791877365047	721.394035216944	
72	23.362142857143	715.391453938319	999.261422667737	503.530464930933	864.156795470649	1430.273936830669	320.348114530066	986.046376324484	1356.568404811099	465.084927261385	923.156884708733	1425.014891905461	648.589463190979	871.002397981147	1485.957934255422	474.549533611012	944.568840956211	930.932838021103	607.174867968374	917.118098137176	950.868372951088	332.699234853221	935.672397219870	717.114038127096	580.841396473663	828.088708771210	627.296824674040	643.237460985050	884.818840415971	559.525184728667	562.734861202601	862.377130047343	474.803756969678	566.256117289021	991.537297689972	766.900807417947	365.331934502695	941.014529359955	635.409816138797	291.813401655272	1044.390458860925	578.952393354761	353.572836598315	1069.128645895569	513.438393515182	353.757164963419	1055.239369625164	440.334947646216	344.911367062832	991.309746165853	308.109126633485	298.492437433775	1079.890731986770	212.650233521381	356.600831441088	821.690114324350	391.640895171596	573.678060227668	735.363370752818	300.273136597536	635.976322451180	760.533656374952	200.537815574253	572.018712354962	605.410238857473	44.785835587784	541.901843619082	778.511201788494	96.419942336177	578.174960642643	688.182792676918	37.206584507815	615.891952046944	896.613491772988	40.101028110834	607.501178455389	997.062772592136	38.376837880810	401.275891650611	1069.748745487341	39.810295491470	319.721903022605	1143.575666067346	113.208762860609	339.020011035458	1275.615458854332	77.833389215175	311.719210237238	727.260120281589	1102.990774003658	223.470955030257	688.784431773450	845.886603223107	231.487358683812	1056.724318539235	1109.870032455384	758.681798676970	1301.258061471273	1158.998989595645	717.335366791734	
73	23.374285714286	717.363653036331	997.096418775967	501.178295303318	864.492271764782	1428.074468969762	317.305565083080	986.522337794514	1355.322673676548	462.484342413330	922.831623348799	1423.971156333023	645.737140282152	870.827234261033	1484.266190760020	471.349626990996	946.434204440531	929.144282066380	605.447431973768	919.607949363589	949.138048381513	331.036032958226	937.170836588936	715.060283147723	578.821316916656	829.346451062505	625.520347295441	641.414105441108	885.558667957811	557.391485472998	560.735189620828	862.191447614461	472.188891373556	564.039584975341	995.008215074300	765.266784867630	364.086874410019	943.319968431084	633.704426440675	291.622007828681	1046.814316778098	577.478709678701	353.303914669523	1070.119813653427	510.966794454243	354.379290062073	1055.883327622428	437.461112898948	345.370600551011	990.461605225685	306.103367103458	298.775707738366	1076.983021292624	209.603513187921	357.862326785923	820.137557053452	389.457158119343	571.882426101745	732.591896163872	299.620521027226	634.847975834234	755.439016902763	199.463226262522	571.017685813091	598.116120022715	45.132948374028	541.935427841078	771.342729702367	96.365935598855	577.891418992639	680.936080185819	37.380091309841	615.860044829587	889.389568289684	39.951208875569	607.554107004010	990.389732851776	38.005874276798	402.605327282335	1062.710703185155	38.503751684104	320.569531068647	1138.635156762820	109.424037137063	340.686999231978	1269.759006221135	70.560392485480	312.293781881512	729.965943978117	1099.697185898590	220.175990511404	693.295235124122	842.339567044474	227.750378567839	1055.355142534792	1108.144908050239	756.306473563719	1298.554450744284	1160.957147668223	713.363311791897	
74	23.386428571429	719.233318369493	995.063849977302	498.777713953258	864.899561328674	1425.934129035398	314.151105152715	987.051931186702	1354.167983875624	459.813274108753	922.536533128688	1423.048678408773	642.809736775848	870.711557664706	1482.705642110082	468.032832019310	948.322888844169	927.438755966515	603.615234236680	922.077375621189	947.591261906845	329.306629594991	938.937747092435	713.119819730622	576.759264398325	830.958611866129	623.729376991909	639.469706831881	886.824122771073	555.282023546152	558.672229464280	862.616705328493	469.426285092053	561.809371749378	998.525844614478	763.900750273379	362.896977853556	946.023249755141	632.470616425469	291.175623142157	1049.459523266064	576.345252518041	353.040316923802	1071.342841494206	508.795360560416	354.899286671018	1056.689691960842	434.868489119112	345.698421767468	989.758985664692	304.486901665232	298.571303629473	1073.814775928981	206.799872280036	358.897792410932	818.990135705564	387.282359501419	570.051206766971	730.111343480507	299.126043474838	633.674909188983	750.556167914330	198.527513978682	570.051059512151	590.872284151300	45.860237787733	542.051156107072	764.312714809275	96.351346138193	577.629690525501	673.759157845372	37.744256491793	615.885958896878	882.216617188982	39.759820988030	607.600956635066	983.060305752082	37.771005087437	403.468333195364	1055.185216036010	37.418524810401	321.099144435461	1133.053609825564	106.002438733591	342.174823325031	1263.349758400954	63.871699178670	312.967544533417	733.493620565285	1096.093275145855	216.701362528052	699.008353087210	838.443620029723	223.742759457428	1053.308310356937	1106.136685079212	754.025292795259	1295.409642073196	1161.599732172355	709.475339446533	
75	23.398571428571	720.972982965544	993.277830227075	496.358106006439	865.374451674228	1423.965595197135	310.924799074191	987.634054842037	1353.190043835034	457.090096975095	922.315149923242	1422.343505165448	639.827638009822	870.675387101750	1481.376208832325	464.638857318288	950.186309211566	925.921347294916	601.671391343859	924.461213303467	946.340006751634	327.491800653733	940.921899295619	711.397478253825	574.643853643808	832.902768666310	622.013537414252	637.398893843817	888.626015802495	553.297070988164	556.550342049341	863.719044239386	466.586746379088	559.626733749579	1001.958128399127	762.893592109351	361.732157485071	948.991939755240	631.762551914540	290.426143509377	1052.169498432510	575.584496603936	352.698740376737	1072.708460427738	507.027475339676	355.212114853035	1057.579536302437	432.664574027665	345.832585096160	989.179599628040	303.320985930832	297.895373244568	1070.479270974133	204.380594800351	359.660391698105	818.291564577576	385.210258641750	568.223121251771	727.946067563177	298.904533657288	632.472012086018	745.947720484543	197.838322742371	569.146209139391	583.723264421041	47.136584386798	542.247743519715	757.490460070446	96.403202894779	577.408126901985	666.677813330212	38.393049367928	615.964442851104	875.096134473988	39.514338704944	607.634358587947	975.426115546484	37.661348778538	403.914783150530	1047.494398568686	36.592267704965	321.344792333836	1127.025769099996	103.138925093203	343.406567160985	1256.623270214090	58.195684656474	313.653309195881	737.854654277523	1092.317748685363	213.096820369350	705.920861672598	834.349396073105	219.511251933559	1050.560763915928	1103.947362616067	751.832446793792	1291.855227600277	1160.868441205657	705.665622225387	
76	23.410714285714	722.573261066483	991.841816372698	493.941851261580	865.905309605407	1422.279208585918	307.668152613379	988.260954236346	1352.472747066728	454.334046663433	922.201990456582	1421.949719901860	636.810405490906	870.726419520129	1480.369118517875	461.207760427591	951.975728297680	924.700006085446	599.617982387303	926.707319059157	945.479735348955	325.575984526406	943.079975686965	709.997775029674	572.465896764118	835.175189296839	620.459231279152	635.207053408252	890.993609865150	551.535470686952	554.383829853635	865.580298466681	463.749410595814	557.566076553493	1005.184082857067	762.302377725583	360.538686318367	952.036239518856	631.574029615683	289.363960265105	1054.752401817263	575.178418155510	352.195850249307	1074.070793610100	505.698627233060	355.237259593932	1058.408040969587	430.893380455780	345.736394478891	988.595976668131	302.612656208719	296.822969620679	1066.979932037018	202.420166840507	360.135019714753	818.110352543365	383.329378311986	566.444025883938	726.144008439791	299.070193197887	631.256128638769	741.694235592455	197.503346355830	568.326625916056	576.728706618057	49.144720932554	542.507449219853	750.953198919486	96.554956439067	577.241933922397	659.721655177094	39.435641562905	616.079821215489	868.022734067084	39.203435583594	607.645640418841	967.724132690372	37.652174257862	404.022944108664	1039.835694688701	36.025505069404	321.358110523771	1120.676445589864	100.931981477809	344.339085465170	1249.725842311613	53.772477446203	314.270010639285	743.038774472727	1088.526319103729	209.409115296362	714.030455681226	830.223679094736	215.105358846296	1047.090758946468	1101.700998139658	749.715312642482	1287.907118316110	1158.721633124630	701.926912640042	
